<?xml version="1.0" standalone="yes"?>

<svg version="1.1" viewBox="0.0 0.0 960.0 720.0" fill="none" stroke="none" stroke-linecap="square" stroke-miterlimit="10" xmlns="http://www.w3.org/2000/svg" xmlns:xlink="http://www.w3.org/1999/xlink"><clipPath id="p.0"><path d="m0 0l960.0 0l0 720.0l-960.0 0l0 -720.0z" clip-rule="nonzero"></path></clipPath><g clip-path="url(#p.0)"><path fill="#000000" fill-opacity="0.0" d="m0 0l960.0 0l0 720.0l-960.0 0z" fill-rule="evenodd"></path><path fill="#ffffff" d="m0 2.2939632l960.0 0l0 717.7008l-960.0 0z" fill-rule="evenodd"></path><path stroke="#000000" stroke-width="1.0" stroke-linejoin="round" stroke-linecap="butt" d="m0 2.2939632l960.0 0l0 717.7008l-960.0 0z" fill-rule="evenodd"></path><path fill="#cfe2f3" d="m59.22404 114.98454l0 0c-3.430462 -22.551956 7.832432 -44.87703 29.009418 -57.50186c21.176987 -12.624832 48.554092 -13.335308 70.514175 -1.8299408l0 0c7.778946 -13.112644 22.016663 -22.16602 38.40654 -24.421658c16.389877 -2.2556381 33.00685 2.5513954 44.824615 12.967068l0 0c6.626648 -11.888767 19.638214 -19.876497 34.41748 -21.128733c14.779266 -1.2522354 29.23462 4.408249 38.236572 14.972818l0 0c11.972015 -12.602062 31.019806 -17.908054 48.901276 -13.622044c17.88144 4.2860107 31.384918 17.394218 34.66739 33.652626l0 0c14.667725 3.5790405 26.885681 12.677433 33.49704 24.944439c6.611389 12.267014 6.967682 26.499275 0.97680664 39.019638l0 0c14.443451 16.816208 17.822144 39.223587 8.875183 58.860123c-8.94693 19.636536 -28.875336 33.552063 -52.348297 36.553528c-0.16543579 18.429596 -11.464081 35.340363 -29.540924 44.214157c-18.076874 8.87381 -40.10916 8.324951 -57.604706 -1.434967c-7.452179 22.072601 -28.427551 38.313446 -53.863983 41.70584c-25.436432 3.392395 -50.773956 -6.671814 -65.06581 -25.844482c-17.51883 9.450256 -38.539963 12.172577 -58.321457 7.5528564c-19.781502 -4.6197205 -36.657066 -16.192352 -46.819916 -32.107346l0 0c-17.902042 1.8740234 -35.210842 -6.423126 -43.336105 -20.773636c-8.125265 -14.35051 -5.3373165 -31.699478 6.980194 -43.436676l0 0c-15.969086 -8.407974 -24.117476 -25.092178 -20.196104 -41.352448c3.9213715 -16.260284 19.023905 -28.412003 37.432228 -30.118515z" fill-rule="evenodd"></path><path fill="#000000" fill-opacity="0.0" d="m41.634052 187.32469l0 0c7.535858 3.967743 16.241543 5.7676086 24.948177 5.1579285m11.403809 59.053818c3.7441711 -0.3919525 7.414177 -1.2219543 10.9153595 -2.4685974m94.22078 27.022034c-2.6334076 -3.5327454 -4.8382263 -7.30777 -6.576889 -11.260803m125.51123 -4.6011963l0 0c1.3586426 -4.02417 2.238922 -8.165924 2.6261597 -12.35614m84.516205 -30.421494c0.17611694 -19.621155 -12.281769 -37.58647 -32.022644 -46.179337m75.49533 -49.23226c-3.196991 6.6813736 -8.077515 12.60833 -14.258942 17.31614m-20.211945 -81.28196l0 0c0.54473877 2.6980858 0.7968445 5.4367256 0.7528076 8.177956m-84.32004 -28.207726l0 0c-2.9864197 3.143589 -5.4468384 6.6565094 -7.3046265 10.4293785m-65.3501 -4.2748337l0 0c-1.591507 2.855297 -2.7799377 5.87669 -3.5379333 8.994583m-79.69444 2.4602432l0 0c4.646744 2.4345284 8.945618 5.3647423 12.80217 8.726276m-112.32448 50.605843l0 0c0.47280884 3.1082458 1.2198677 6.1781693 2.2341843 9.181038" fill-rule="evenodd"></path><path stroke="#000000" stroke-width="1.0" stroke-linejoin="round" stroke-linecap="butt" d="m59.22404 114.98454l0 0c-3.430462 -22.551956 7.832432 -44.87703 29.009418 -57.50186c21.176987 -12.624832 48.554092 -13.335308 70.514175 -1.8299408l0 0c7.778946 -13.112644 22.016663 -22.16602 38.40654 -24.421658c16.389877 -2.2556381 33.00685 2.5513954 44.824615 12.967068l0 0c6.626648 -11.888767 19.638214 -19.876497 34.41748 -21.128733c14.779266 -1.2522354 29.23462 4.408249 38.236572 14.972818l0 0c11.972015 -12.602062 31.019806 -17.908054 48.901276 -13.622044c17.88144 4.2860107 31.384918 17.394218 34.66739 33.652626l0 0c14.667725 3.5790405 26.885681 12.677433 33.49704 24.944439c6.611389 12.267014 6.967682 26.499275 0.97680664 39.019638l0 0c14.443451 16.816208 17.822144 39.223587 8.875183 58.860123c-8.94693 19.636536 -28.875336 33.552063 -52.348297 36.553528c-0.16543579 18.429596 -11.464081 35.340363 -29.540924 44.214157c-18.076874 8.87381 -40.10916 8.324951 -57.604706 -1.434967c-7.452179 22.072601 -28.427551 38.313446 -53.863983 41.70584c-25.436432 3.392395 -50.773956 -6.671814 -65.06581 -25.844482c-17.51883 9.450256 -38.539963 12.172577 -58.321457 7.5528564c-19.781502 -4.6197205 -36.657066 -16.192352 -46.819916 -32.107346l0 0c-17.902042 1.8740234 -35.210842 -6.423126 -43.336105 -20.773636c-8.125265 -14.35051 -5.3373165 -31.699478 6.980194 -43.436676l0 0c-15.969086 -8.407974 -24.117476 -25.092178 -20.196104 -41.352448c3.9213715 -16.260284 19.023905 -28.412003 37.432228 -30.118515z" fill-rule="evenodd"></path><path stroke="#000000" stroke-width="1.0" stroke-linejoin="round" stroke-linecap="butt" d="m41.634052 187.32469l0 0c7.535858 3.967743 16.241543 5.7676086 24.948177 5.1579285m11.403809 59.053818c3.7441711 -0.3919525 7.414177 -1.2219543 10.9153595 -2.4685974m94.22078 27.022034c-2.6334076 -3.5327454 -4.8382263 -7.30777 -6.576889 -11.260803m125.51123 -4.6011963l0 0c1.3586426 -4.02417 2.238922 -8.165924 2.6261597 -12.35614m84.516205 -30.421494c0.17611694 -19.621155 -12.281769 -37.58647 -32.022644 -46.179337m75.49533 -49.23226c-3.196991 6.6813736 -8.077515 12.60833 -14.258942 17.31614m-20.211945 -81.28196l0 0c0.54473877 2.6980858 0.7968445 5.4367256 0.7528076 8.177956m-84.32004 -28.207726l0 0c-2.9864197 3.143589 -5.4468384 6.6565094 -7.3046265 10.4293785m-65.3501 -4.2748337l0 0c-1.591507 2.855297 -2.7799377 5.87669 -3.5379333 8.994583m-79.69444 2.4602432l0 0c4.646744 2.4345284 8.945618 5.3647423 12.80217 8.726276m-112.32448 50.605843l0 0c0.47280884 3.1082458 1.2198677 6.1781693 2.2341843 9.181038" fill-rule="evenodd"></path><path fill="#000000" d="m115.87347 178.23647l0 -45.8125l6.0625 0l0 45.8125l-6.0625 0zm16.031258 0l0 -33.1875l5.0625 0l0 4.71875q3.65625 -5.46875 10.5625 -5.46875q3.0 0 5.515625 1.078125q2.515625 1.078125 3.765625 2.828125q1.25 1.75 1.75 4.15625q0.3125 1.5625 0.3125 5.46875l0 20.40625l-5.625 0l0 -20.1875q0 -3.4375 -0.65625 -5.140625q-0.65625 -1.703125 -2.328125 -2.71875q-1.671875 -1.015625 -3.921875 -1.015625q-3.59375 0 -6.203125 2.28125q-2.609375 2.28125 -2.609375 8.65625l0 18.125l-5.625 0zm47.875 -5.03125l0.8125 4.96875q-2.375 0.5 -4.25 0.5q-3.0625 0 -4.75 -0.96875q-1.6875 -0.96875 -2.375 -2.546875q-0.6875 -1.578125 -0.6875 -6.640625l0 -19.09375l-4.125 0l0 -4.375l4.125 0l0 -8.21875l5.59375 -3.375l0 11.59375l5.65625 0l0 4.375l-5.65625 0l0 19.40625q0 2.40625 0.296875 3.09375q0.296875 0.6875 0.96875 1.09375q0.671875 0.40625 1.921875 0.40625q0.9375 0 2.46875 -0.21875zm28.21875 -5.65625l5.8125 0.71875q-1.375 5.09375 -5.09375 7.90625q-3.71875 2.8125 -9.5 2.8125q-7.28125 0 -11.546875 -4.484375q-4.265625 -4.484375 -4.265625 -12.578125q0 -8.375 4.3125 -13.0q4.3125 -4.625 11.1875 -4.625q6.65625 0 10.875 4.53125q4.21875 4.53125 4.21875 12.75q0 0.5 -0.03125 1.5l-24.75 0q0.3125 5.46875 3.09375 8.375q2.78125 2.90625 6.9375 2.90625q3.09375 0 5.28125 -1.625q2.1875 -1.625 3.46875 -5.1875zm-18.46875 -9.09375l18.53125 0q-0.375 -4.1875 -2.125 -6.28125q-2.6875 -3.25 -6.96875 -3.25q-3.875 0 -6.515625 2.59375q-2.640625 2.59375 -2.921875 6.9375zm31.28125 19.78125l0 -33.1875l5.0625 0l0 5.03125q1.9375 -3.53125 3.578125 -4.65625q1.640625 -1.125 3.609375 -1.125q2.84375 0 5.78125 1.8125l-1.9375 5.21875q-2.0625 -1.21875 -4.125 -1.21875q-1.84375 0 -3.3125 1.109375q-1.46875 1.109375 -2.09375 3.078125q-0.9375 3.0 -0.9375 6.5625l0 17.375l-5.625 0zm21.375 0l0 -33.1875l5.0625 0l0 4.71875q3.65625 -5.46875 10.5625 -5.46875q3.0 0 5.515625 1.078125q2.515625 1.078125 3.765625 2.828125q1.25 1.75 1.75 4.15625q0.3125 1.5625 0.3125 5.46875l0 20.40625l-5.625 0l0 -20.1875q0 -3.4375 -0.65625 -5.140625q-0.65625 -1.703125 -2.328125 -2.71875q-1.671875 -1.015625 -3.921875 -1.015625q-3.59375 0 -6.203125 2.28125q-2.609375 2.28125 -2.609375 8.65625l0 18.125l-5.625 0zm58.3125 -10.6875l5.8125 0.71875q-1.375 5.09375 -5.09375 7.90625q-3.71875 2.8125 -9.5 2.8125q-7.28125 0 -11.546875 -4.484375q-4.265625 -4.484375 -4.265625 -12.578125q0 -8.375 4.3125 -13.0q4.3125 -4.625 11.1875 -4.625q6.65625 0 10.875 4.53125q4.21875 4.53125 4.21875 12.75q0 0.5 -0.03125 1.5l-24.75 0q0.3125 5.46875 3.09375 8.375q2.78125 2.90625 6.9375 2.90625q3.09375 0 5.28125 -1.625q2.1875 -1.625 3.46875 -5.1875zm-18.46875 -9.09375l18.53125 0q-0.375 -4.1875 -2.125 -6.28125q-2.6875 -3.25 -6.96875 -3.25q-3.875 0 -6.515625 2.59375q-2.640625 2.59375 -2.921875 6.9375zm43.625 14.75l0.8125 4.96875q-2.375 0.5 -4.25 0.5q-3.0625 0 -4.75 -0.96875q-1.6875 -0.96875 -2.375 -2.546875q-0.6875 -1.578125 -0.6875 -6.640625l0 -19.09375l-4.125 0l0 -4.375l4.125 0l0 -8.21875l5.59375 -3.375l0 11.59375l5.65625 0l0 4.375l-5.65625 0l0 19.40625q0 2.40625 0.296875 3.09375q0.296875 0.6875 0.96875 1.09375q0.671875 0.40625 1.921875 0.40625q0.9375 0 2.46875 -0.21875z" fill-rule="nonzero"></path><path fill="#cfe2f3" d="m29.203932 451.67566l0 0c0 -27.64035 22.406916 -50.04724 50.04724 -50.04724l308.56696 0c13.273346 0 26.003052 5.2727966 35.388733 14.658478c9.385681 9.385681 14.658508 22.115387 14.658508 35.388763l0 200.18896c0 27.64032 -22.406921 50.04724 -50.04724 50.04724l-308.56696 0c-27.640327 0 -50.04724 -22.406921 -50.04724 -50.04724z" fill-rule="evenodd"></path><path stroke="#000000" stroke-width="1.0" stroke-linejoin="round" stroke-linecap="butt" d="m29.203932 451.67566l0 0c0 -27.64035 22.406916 -50.04724 50.04724 -50.04724l308.56696 0c13.273346 0 26.003052 5.2727966 35.388733 14.658478c9.385681 9.385681 14.658508 22.115387 14.658508 35.388763l0 200.18896c0 27.64032 -22.406921 50.04724 -50.04724 50.04724l-308.56696 0c-27.640327 0 -50.04724 -22.406921 -50.04724 -50.04724z" fill-rule="evenodd"></path><path fill="#000000" d="m121.98777 497.71014l-12.15625 -45.8125l6.21875 0l6.96875 30.03125q1.125 4.71875 1.9375 9.375q1.75 -7.34375 2.0625 -8.46875l8.718758 -30.9375l7.3125 0l6.5625 23.1875q2.46875 8.625 3.5625 16.21875q0.875 -4.34375 2.28125 -9.96875l7.1875 -29.4375l6.09375 0l-12.5625 45.8125l-5.84375 0l-9.65625 -34.90625q-1.21875 -4.375 -1.4375 -5.375q-0.71875 3.15625 -1.34375 5.375l-9.71875 34.90625l-6.1875076 0zm74.40626 -10.6875l5.8125 0.71875q-1.375 5.09375 -5.09375 7.90625q-3.71875 2.8125 -9.5 2.8125q-7.28125 0 -11.546875 -4.484375q-4.265625 -4.484375 -4.265625 -12.578125q0 -8.375 4.3125 -13.0q4.3125 -4.625 11.1875 -4.625q6.65625 0 10.875 4.53125q4.21875 4.53125 4.21875 12.75q0 0.5 -0.03125 1.5l-24.75 0q0.3125 5.46875 3.09375 8.375q2.78125 2.90625 6.9375 2.90625q3.09375 0 5.28125 -1.625q2.1875 -1.625 3.46875 -5.1875zm-18.46875 -9.09375l18.53125 0q-0.375 -4.1875 -2.125 -6.28125q-2.6875 -3.25 -6.96875 -3.25q-3.875 0 -6.515625 2.59375q-2.640625 2.59375 -2.921875 6.9375zm36.53125 19.78125l-5.21875 0l0 -45.8125l5.625 0l0 16.34375q3.5625 -4.46875 9.09375 -4.46875q3.0625 0 5.796875 1.234375q2.734375 1.234375 4.5 3.46875q1.765625 2.234375 2.765625 5.390625q1.0 3.15625 1.0 6.75q0 8.53125 -4.21875 13.1875q-4.21875 4.65625 -10.125 4.65625q-5.875 0 -9.21875 -4.90625l0 4.15625zm-0.0625 -16.84375q0 5.96875 1.625 8.625q2.65625 4.34375 7.1875 4.34375q3.6875 0 6.375 -3.203125q2.6875 -3.203125 2.6875 -9.546875q0 -6.5 -2.578125 -9.59375q-2.578125 -3.09375 -6.234375 -3.09375q-3.6875 0 -6.375 3.203125q-2.6875 3.203125 -2.6875 9.265625zm28.21875 6.9375l5.5625 -0.875q0.46875 3.34375 2.609375 5.125q2.140625 1.78125 5.9843597 1.78125q3.875 0 5.75 -1.578125q1.875 -1.578125 1.875 -3.703125q0 -1.90625 -1.65625 -3.0q-1.15625 -0.75 -5.75 -1.90625q-6.1874847 -1.5625 -8.57811 -2.703125q-2.390625 -1.140625 -3.625 -3.15625q-1.234375 -2.015625 -1.234375 -4.453125q0 -2.21875 1.015625 -4.109375q1.015625 -1.890625 2.765625 -3.140625q1.3125 -0.96875 3.578125 -1.640625q2.265625 -0.671875 4.859375 -0.671875q3.9062347 0 6.8593597 1.125q2.953125 1.125 4.359375 3.046875q1.40625 1.921875 1.9375 5.140625l-5.5 0.75q-0.375 -2.5625 -2.171875 -4.0q-1.796875 -1.4375 -5.078125 -1.4375q-3.8749847 0 -5.5312347 1.28125q-1.65625 1.28125 -1.65625 3.0q0 1.09375 0.6875 1.96875q0.6875 0.90625 2.15625 1.5q0.84375 0.3125 4.9687347 1.4375q5.96875 1.59375 8.328125 2.609375q2.359375 1.015625 3.703125 2.953125q1.34375 1.9375 1.34375 4.8125q0 2.8125 -1.640625 5.296875q-1.640625 2.484375 -4.734375 3.84375q-3.09375 1.359375 -7.0 1.359375q-6.4687347 0 -9.85936 -2.6875q-3.390625 -2.6875 -4.328125 -7.96875zm34.281235 -29.4375l0 -6.46875l5.625 0l0 6.46875l-5.625 0zm0 39.34375l0 -33.1875l5.625 0l0 33.1875l-5.625 0zm26.46875 -5.03125l0.8125 4.96875q-2.375 0.5 -4.25 0.5q-3.0625 0 -4.75 -0.96875q-1.6875 -0.96875 -2.375 -2.546875q-0.6875 -1.578125 -0.6875 -6.640625l0 -19.09375l-4.125 0l0 -4.375l4.125 0l0 -8.21875l5.59375 -3.375l0 11.59375l5.65625 0l0 4.375l-5.65625 0l0 19.40625q0 2.40625 0.296875 3.09375q0.296875 0.6875 0.96875 1.09375q0.671875 0.40625 1.921875 0.40625q0.9375 0 2.46875 -0.21875zm28.21875 -5.65625l5.8125 0.71875q-1.375 5.09375 -5.09375 7.90625q-3.71875 2.8125 -9.5 2.8125q-7.28125 0 -11.546875 -4.484375q-4.265625 -4.484375 -4.265625 -12.578125q0 -8.375 4.3125 -13.0q4.3125 -4.625 11.1875 -4.625q6.65625 0 10.875 4.53125q4.21875 4.53125 4.21875 12.75q0 0.5 -0.03125 1.5l-24.75 0q0.3125 5.46875 3.09375 8.375q2.78125 2.90625 6.9375 2.90625q3.09375 0 5.28125 -1.625q2.1875 -1.625 3.46875 -5.1875zm-18.46875 -9.09375l18.53125 0q-0.375 -4.1875 -2.125 -6.28125q-2.6875 -3.25 -6.96875 -3.25q-3.875 0 -6.515625 2.59375q-2.640625 2.59375 -2.921875 6.9375zm32.8125 19.78125l0 -6.40625l6.40625 0l0 6.40625q0 3.53125 -1.25 5.703125q-1.25 2.171875 -3.96875 3.359375l-1.5625 -2.40625q1.78125 -0.78125 2.625 -2.296875q0.84375 -1.515625 0.9375 -4.359375l-3.1875 0z" fill-rule="nonzero"></path><path fill="#000000" d="m111.42527 587.4289l0 -45.90625l5.125 0l0 4.3125q1.8125 -2.53125 4.09375 -3.796875q2.28125 -1.265625 5.53125 -1.265625q4.2500076 0 7.5000076 2.1875q3.25 2.1875 4.90625 6.171875q1.65625 3.984375 1.65625 8.734375q0 5.09375 -1.828125 9.171875q-1.828125 4.078125 -5.3125 6.25q-3.484375 2.171875 -7.3281326 2.171875q-2.8125 0 -5.046875 -1.1875q-2.234375 -1.1875 -3.671875 -3.0l0 16.15625l-5.625 0zm5.09375 -29.125q0 6.40625 2.59375 9.46875q2.59375 3.0625 6.28125 3.0625q3.7500076 0 6.4218826 -3.171875q2.671875 -3.171875 2.671875 -9.828125q0 -6.34375 -2.609375 -9.5q-2.609375 -3.15625 -6.2343826 -3.15625q-3.59375 0 -6.359375 3.359375q-2.765625 3.359375 -2.765625 9.765625zm30.500008 16.40625l0 -45.8125l5.625 0l0 16.4375q3.9375 -4.5625 9.9375 -4.5625q3.6875 0 6.40625 1.453125q2.71875 1.453125 3.890625 4.015625q1.171875 2.5625 1.171875 7.4375l0 21.03125l-5.625 0l0 -21.03125q0 -4.21875 -1.828125 -6.140625q-1.828125 -1.921875 -5.171875 -1.921875q-2.5 0 -4.703125 1.296875q-2.203125 1.296875 -3.140625 3.515625q-0.9375 2.21875 -0.9375 6.125l0 18.15625l-5.625 0zm33.5 -16.59375q0 -9.21875 5.125 -13.65625q4.28125 -3.6875 10.4375 -3.6875q6.84375 0 11.1875 4.484375q4.34375 4.484375 4.34375 12.390625q0 6.40625 -1.921875 10.078125q-1.921875 3.671875 -5.59375 5.703125q-3.671875 2.03125 -8.015625 2.03125q-6.96875 0 -11.265625 -4.46875q-4.296875 -4.46875 -4.296875 -12.875zm5.78125 0q0 6.375 2.78125 9.546875q2.78125 3.171875 7.0 3.171875q4.1875 0 6.96875 -3.1875q2.78125 -3.1875 2.78125 -9.71875q0 -6.15625 -2.796875 -9.328125q-2.796875 -3.171875 -6.953125 -3.171875q-4.21875 0 -7.0 3.15625q-2.78125 3.15625 -2.78125 9.53125zm31.90625 16.59375l0 -33.1875l5.0625 0l0 4.71875q3.65625 -5.46875 10.5625 -5.46875q3.0 0 5.515625 1.078125q2.515625 1.078125 3.765625 2.828125q1.25 1.75 1.75 4.15625q0.3125 1.5625 0.3125 5.46875l0 20.40625l-5.625 0l0 -20.1875q0 -3.4375 -0.65625 -5.140625q-0.65625 -1.703125 -2.328125 -2.71875q-1.671875 -1.015625 -3.921875 -1.015625q-3.59375 0 -6.203125 2.28125q-2.609375 2.28125 -2.609375 8.65625l0 18.125l-5.625 0zm58.312485 -10.6875l5.8125 0.71875q-1.375 5.09375 -5.09375 7.90625q-3.71875 2.8125 -9.5 2.8125q-7.28125 0 -11.546875 -4.484375q-4.2656097 -4.484375 -4.2656097 -12.578125q0 -8.375 4.3124847 -13.0q4.3125 -4.625 11.1875 -4.625q6.65625 0 10.875 4.53125q4.21875 4.53125 4.21875 12.75q0 0.5 -0.03125 1.5l-24.75 0q0.3125 5.46875 3.09375 8.375q2.78125 2.90625 6.9375 2.90625q3.09375 0 5.28125 -1.625q2.1875 -1.625 3.46875 -5.1875zm-18.46875 -9.09375l18.53125 0q-0.375 -4.1875 -2.125 -6.28125q-2.6875 -3.25 -6.96875 -3.25q-3.875 0 -6.515625 2.59375q-2.640625 2.59375 -2.921875 6.9375zm47.03125 3.1875q0 -9.21875 5.125 -13.65625q4.28125 -3.6875 10.4375 -3.6875q6.84375 0 11.1875 4.484375q4.34375 4.484375 4.34375 12.390625q0 6.40625 -1.921875 10.078125q-1.921875 3.671875 -5.59375 5.703125q-3.671875 2.03125 -8.015625 2.03125q-6.96875 0 -11.265625 -4.46875q-4.296875 -4.46875 -4.296875 -12.875zm5.78125 0q0 6.375 2.78125 9.546875q2.78125 3.171875 7.0 3.171875q4.1875 0 6.96875 -3.1875q2.78125 -3.1875 2.78125 -9.71875q0 -6.15625 -2.796875 -9.328125q-2.796875 -3.171875 -6.953125 -3.171875q-4.21875 0 -7.0 3.15625q-2.78125 3.15625 -2.78125 9.53125zm31.84375 16.59375l0 -33.1875l5.0625 0l0 5.03125q1.9375 -3.53125 3.578125 -4.65625q1.640625 -1.125 3.609375 -1.125q2.84375 0 5.78125 1.8125l-1.9375 5.21875q-2.0625 -1.21875 -4.125 -1.21875q-1.84375 0 -3.3125 1.109375q-1.46875 1.109375 -2.09375 3.078125q-0.9375 3.0 -0.9375 6.5625l0 17.375l-5.625 0z" fill-rule="nonzero"></path><path fill="#000000" d="m171.7534 646.6789l0.8125 4.96875q-2.375 0.5 -4.25 0.5q-3.0625 0 -4.75 -0.96875q-1.6875 -0.96875 -2.375 -2.546875q-0.6875 -1.578125 -0.6875 -6.640625l0 -19.09375l-4.125 0l0 -4.375l4.125 0l0 -8.21875l5.59375 -3.375l0 11.59375l5.65625 0l0 4.375l-5.65625 0l0 19.40625q0 2.40625 0.296875 3.09375q0.296875 0.6875 0.96875 1.09375q0.671875 0.40625 1.921875 0.40625q0.9375 0 2.46875 -0.21875zm27.15625 0.9375q-3.125 2.65625 -6.015625 3.75q-2.890625 1.09375 -6.203125 1.09375q-5.46875 0 -8.40625 -2.671875q-2.9375 -2.671875 -2.9375 -6.828125q0 -2.4375 1.109375 -4.453125q1.109375 -2.015625 2.90625 -3.234375q1.796875 -1.21875 4.046875 -1.84375q1.65625 -0.4375 5.0 -0.84375q6.8125 -0.8125 10.03125 -1.9375q0.03125 -1.15625 0.03125 -1.46875q0 -3.4375 -1.59375 -4.84375q-2.15625 -1.90625 -6.40625 -1.90625q-3.96875 0 -5.859375 1.390625q-1.890625 1.390625 -2.796875 4.921875l-5.5 -0.75q0.75 -3.53125 2.46875 -5.703125q1.71875 -2.171875 4.96875 -3.34375q3.25 -1.171875 7.53125 -1.171875q4.25 0 6.90625 1.0q2.65625 1.0 3.90625 2.515625q1.25 1.515625 1.75 3.828125q0.28125 1.4375 0.28125 5.1875l0 7.5q0 7.84375 0.359375 9.921875q0.359375 2.078125 1.421875 3.984375l-5.875 0q-0.875 -1.75 -1.125 -4.09375zm-0.46875 -12.5625q-3.0625 1.25 -9.1875 2.125q-3.46875 0.5 -4.90625 1.125q-1.4375 0.625 -2.21875 1.828125q-0.78125 1.203125 -0.78125 2.671875q0 2.25 1.703125 3.75q1.703125 1.5 4.984375 1.5q3.25 0 5.78125 -1.421875q2.53125 -1.421875 3.71875 -3.890625q0.90625 -1.90625 0.90625 -5.625l0 -2.0625zm19.59375 16.65625l-5.21875 0l0 -45.8125l5.625 0l0 16.34375q3.5625 -4.46875 9.09375 -4.46875q3.0625 0 5.796875 1.234375q2.734375 1.234375 4.5 3.46875q1.765625 2.234375 2.765625 5.390625q1.0 3.15625 1.0 6.75q0 8.53125 -4.21875 13.1875q-4.21875 4.65625 -10.125 4.65625q-5.875 0 -9.21875 -4.90625l0 4.15625zm-0.0625 -16.84375q0 5.96875 1.625 8.625q2.65625 4.34375 7.1875 4.34375q3.6875 0 6.375 -3.203125q2.6875 -3.203125 2.6875 -9.546875q0 -6.5 -2.578125 -9.59375q-2.578125 -3.09375 -6.234375 -3.09375q-3.6875 0 -6.375 3.203125q-2.6875 3.203125 -2.6875 9.265625zm30.34375 16.84375l0 -45.8125l5.625 0l0 45.8125l-5.625 0zm37.062485 -10.6875l5.8125 0.71875q-1.375 5.09375 -5.09375 7.90625q-3.71875 2.8125 -9.5 2.8125q-7.28125 0 -11.546875 -4.484375q-4.265625 -4.484375 -4.265625 -12.578125q0 -8.375 4.3125 -13.0q4.3125 -4.625 11.1875 -4.625q6.65625 0 10.875 4.53125q4.21875 4.53125 4.21875 12.75q0 0.5 -0.03125 1.5l-24.75 0q0.3125 5.46875 3.09375 8.375q2.78125 2.90625 6.9375 2.90625q3.09375 0 5.28125 -1.625q2.1875 -1.625 3.46875 -5.1875zm-18.46875 -9.09375l18.53125 0q-0.375 -4.1875 -2.125 -6.28125q-2.6875 -3.25 -6.96875 -3.25q-3.875 0 -6.515625 2.59375q-2.640625 2.59375 -2.921875 6.9375zm43.625 14.75l0.8125 4.96875q-2.375 0.5 -4.25 0.5q-3.0625 0 -4.75 -0.96875q-1.6875 -0.96875 -2.375 -2.546875q-0.6875 -1.578125 -0.6875 -6.640625l0 -19.09375l-4.125 0l0 -4.375l4.125 0l0 -8.21875l5.59375 -3.375l0 11.59375l5.65625 0l0 4.375l-5.65625 0l0 19.40625q0 2.40625 0.296875 3.09375q0.296875 0.6875 0.96875 1.09375q0.671875 0.40625 1.921875 0.40625q0.9375 0 2.46875 -0.21875z" fill-rule="nonzero"></path><path fill="#cfe2f3" d="m549.853 401.62726l375.0866 0l0 245.35333l-49.07184 49.0719l-326.01477 0z" fill-rule="evenodd"></path><path fill="#a5b4c2" d="m875.8678 696.0525l9.814331 -39.257507l39.257507 -9.814392z" fill-rule="evenodd"></path><path fill="#000000" fill-opacity="0.0" d="m875.8678 696.0525l9.814331 -39.257507l39.257507 -9.814392l-49.07184 49.0719l-326.01477 0l0 -294.42523l375.0866 0l0 245.35333" fill-rule="evenodd"></path><path stroke="#000000" stroke-width="1.0" stroke-linejoin="round" stroke-linecap="butt" d="m875.8678 696.0525l9.814331 -39.257507l39.257507 -9.814392l-49.07184 49.0719l-326.01477 0l0 -294.42523l375.0866 0l0 245.35333" fill-rule="evenodd"></path><path fill="#000000" d="m565.78796 455.1708q0 -10.453125 5.609375 -16.359375q5.625 -5.921875 14.5 -5.921875q5.8125 0 10.484375 2.78125q4.671875 2.78125 7.109375 7.75q2.453125 4.96875 2.453125 11.265625q0 6.390625 -2.578125 11.4375q-2.578125 5.03125 -7.296875 7.625q-4.71875 2.59375 -10.203125 2.59375q-5.921875 0 -10.59375 -2.859375q-4.671875 -2.875 -7.078125 -7.828125q-2.40625 -4.953125 -2.40625 -10.484375zm5.734375 0.09375q0 7.578125 4.078125 11.953125q4.078125 4.375 10.25 4.375q6.265625 0 10.3125 -4.40625q4.0625 -4.421875 4.0625 -12.53125q0 -5.125 -1.734375 -8.9375q-1.734375 -3.828125 -5.078125 -5.9375q-3.328125 -2.109375 -7.484375 -2.109375q-5.90625 0 -10.15625 4.0625q-4.25 4.046875 -4.25 13.53125zm40.92157 20.359375l0 -30.421875l4.640625 0l0 4.328125q3.359375 -5.015625 9.6875 -5.015625q2.75 0 5.046875 1.0q2.3125 0.984375 3.453125 2.59375q1.15625 1.59375 1.609375 3.796875q0.28125 1.4375 0.28125 5.015625l0 18.703125l-5.15625 0l0 -18.5q0 -3.15625 -0.609375 -4.71875q-0.59375 -1.5625 -2.125 -2.484375q-1.53125 -0.9375 -3.59375 -0.9375q-3.28125 0 -5.6875 2.09375q-2.390625 2.09375 -2.390625 7.9375l0 16.609375l-5.15625 0zm32.51245 0l0 -41.984375l5.15625 0l0 41.984375l-5.15625 0zm13.17218 -36.0625l0 -5.921875l5.15625 0l0 5.921875l-5.15625 0zm0 36.0625l0 -30.421875l5.15625 0l0 30.421875l-5.15625 0zm13.000305 0l0 -30.421875l4.640625 0l0 4.328125q3.359375 -5.015625 9.6875 -5.015625q2.75 0 5.046875 1.0q2.3125 0.984375 3.453125 2.59375q1.15625 1.59375 1.609375 3.796875q0.28125 1.4375 0.28125 5.015625l0 18.703125l-5.15625 0l0 -18.5q0 -3.15625 -0.609375 -4.71875q-0.59375 -1.5625 -2.125 -2.484375q-1.53125 -0.9375 -3.59375 -0.9375q-3.28125 0 -5.6875 2.09375q-2.390625 2.09375 -2.390625 7.9375l0 16.609375l-5.15625 0zm53.44989 -9.796875l5.328125 0.65625q-1.265625 4.671875 -4.671875 7.25q-3.40625 2.578125 -8.703125 2.578125q-6.671875 0 -10.59375 -4.109375q-3.90625 -4.109375 -3.90625 -11.53125q0 -7.671875 3.953125 -11.90625q3.953125 -4.25 10.265625 -4.25q6.09375 0 9.953125 4.15625q3.875 4.15625 3.875 11.6875q0 0.453125 -0.03125 1.375l-22.6875 0q0.296875 5.015625 2.84375 7.6875q2.546875 2.65625 6.359375 2.65625q2.828125 0 4.828125 -1.484375q2.015625 -1.5 3.1875 -4.765625zm-16.921875 -8.328125l16.984375 0q-0.34375 -3.84375 -1.953125 -5.765625q-2.46875 -2.96875 -6.390625 -2.96875q-3.546875 0 -5.96875 2.375q-2.421875 2.375 -2.671875 6.359375zm45.449646 18.125l0 -41.984375l5.5625 0l0 37.03125l20.671875 0l0 4.953125l-26.234375 0zm32.621826 0l0 -41.984375l5.5625 0l0 37.03125l20.671875 0l0 4.953125l-26.234375 0zm32.7937 0l0 -41.984375l5.703125 0l22.046875 32.96875l0 -32.96875l5.328125 0l0 41.984375l-5.703125 0l-22.046875 -33.0l0 33.0l-5.328125 0zm82.0625 -4.953125q-2.5625 2.828125 -5.578125 4.25q-3.0 1.421875 -6.484375 1.421875q-6.453125 0 -10.234375 -4.359375q-3.0625 -3.546875 -3.0625 -7.9375q0 -3.890625 2.5 -7.015625q2.515625 -3.140625 7.5 -5.515625q-2.828125 -3.265625 -3.78125 -5.296875q-0.9375 -2.046875 -0.9375 -3.9375q0 -3.78125 2.953125 -6.5625q2.96875 -2.796875 7.46875 -2.796875q4.296875 0 7.03125 2.640625q2.734375 2.625 2.734375 6.328125q0 5.984375 -7.9375 10.21875l7.53125 9.59375q1.296875 -2.515625 2.0 -5.84375l5.359375 1.15625q-1.375 5.484375 -3.71875 9.046875q2.890625 3.828125 6.5625 6.4375l-3.46875 4.09375q-3.125 -2.0 -6.4375 -5.921875zm-10.484375 -21.890625q3.34375 -1.96875 4.328125 -3.453125q1.0 -1.5 1.0 -3.296875q0 -2.15625 -1.375 -3.515625q-1.359375 -1.359375 -3.390625 -1.359375q-2.09375 0 -3.484375 1.359375q-1.375 1.34375 -1.375 3.28125q0 0.984375 0.5 2.0625q0.5 1.0625 1.5 2.265625l2.296875 2.65625zm7.234375 17.828125l-9.453125 -11.71875q-4.171875 2.484375 -5.640625 4.625q-1.453125 2.125 -1.453125 4.21875q0 2.546875 2.03125 5.296875q2.03125 2.75 5.75 2.75q2.328125 0 4.796875 -1.4375q2.484375 -1.453125 3.96875 -3.734375z" fill-rule="nonzero"></path><path fill="#000000" d="m600.43713 545.62396l0 -41.984406l28.328125 0l0 4.953125l-22.765625 0l0 13.0000305l19.703125 0l0 4.953125l-19.703125 0l0 19.078125l-5.5625 0zm34.907715 -36.06253l0 -5.921875l5.15625 0l0 5.921875l-5.15625 0zm0 36.06253l0 -30.421875l5.15625 0l0 30.421875l-5.15625 0zm12.953369 0l0 -30.421875l4.640625 0l0 4.609375q1.765625 -3.234375 3.265625 -4.265625q1.515625 -1.03125 3.3125 -1.03125q2.609375 0 5.296875 1.671875l-1.765625 4.78125q-1.890625 -1.125 -3.78125 -1.125q-1.6875 0 -3.046875 1.015625q-1.34375 1.015625 -1.90625 2.828125q-0.859375 2.75 -0.859375 6.015625l0 15.921875l-5.15625 0zm17.517395 -9.078125l5.109375 -0.796875q0.421875 3.0625 2.375 4.703125q1.96875 1.625 5.5 1.625q3.546875 0 5.265625 -1.4375q1.71875 -1.453125 1.71875 -3.40625q0 -1.75 -1.515625 -2.75q-1.0625 -0.6875 -5.265625 -1.75q-5.671875 -1.4375 -7.875 -2.46875q-2.1875 -1.046875 -3.328125 -2.890625q-1.125 -1.859375 -1.125 -4.09375q0 -2.03125 0.9375 -3.765625q0.9375 -1.734375 2.53125 -2.875q1.203125 -0.890625 3.28125 -1.5q2.078125 -0.625 4.453125 -0.625q3.578125 0 6.28125 1.03125q2.71875 1.03125 4.0 2.796875q1.296875 1.765625 1.78125 4.71875l-5.046875 0.6875q-0.34375 -2.359375 -2.0 -3.671875q-1.640625 -1.3125 -4.640625 -1.3125q-3.546875 0 -5.078125 1.171875q-1.515625 1.171875 -1.515625 2.75q0 1.0 0.640625 1.796875q0.625 0.828125 1.96875 1.375q0.78125 0.296875 4.5625 1.328125q5.46875 1.453125 7.625 2.390625q2.171875 0.921875 3.390625 2.703125q1.234375 1.765625 1.234375 4.40625q0 2.578125 -1.5 4.859375q-1.5 2.28125 -4.34375 3.53125q-2.828125 1.234375 -6.40625 1.234375q-5.9375 0 -9.046875 -2.453125q-3.109375 -2.46875 -3.96875 -7.3125zm42.65625 4.46875l0.734375 4.546875q-2.171875 0.46875 -3.890625 0.46875q-2.796875 0 -4.34375 -0.890625q-1.546875 -0.890625 -2.1875 -2.328125q-0.625 -1.453125 -0.625 -6.09375l0 -17.5l-3.78125 0l0 -4.015625l3.78125 0l0 -7.5312805l5.125 -3.09375l0 10.6250305l5.1875 0l0 4.015625l-5.1875 0l0 17.78125q0 2.203125 0.265625 2.84375q0.28125 0.625 0.890625 1.0q0.625 0.375 1.765625 0.375q0.859375 0 2.265625 -0.203125zm17.390015 4.609375l16.109375 -41.984406l6.0 0l17.171875 41.984406l-6.328125 0l-4.890625 -12.71875l-17.5625 0l-4.609375 12.71875l-5.890625 0zm12.109375 -17.234375l14.234375 0l-4.390625 -11.640625q-2.0 -5.2969055 -2.96875 -8.7031555q-0.8125 4.0469055 -2.265625 8.0156555l-4.609375 12.328125zm30.982666 -18.828156l0 -5.921875l5.15625 0l0 5.921875l-5.15625 0zm0 36.06253l0 -30.421875l5.15625 0l0 30.421875l-5.15625 0zm32.73468 0l0 -3.84375q-2.890625 4.53125 -8.5 4.53125q-3.640625 0 -6.6875 -2.0q-3.046875 -2.015625 -4.734375 -5.609375q-1.671875 -3.59375 -1.671875 -8.25q0 -4.5625 1.515625 -8.265625q1.53125 -3.71875 4.5625 -5.6875q3.03125 -1.984375 6.78125 -1.984375q2.75 0 4.890625 1.171875q2.15625 1.15625 3.5 3.015625l0 -15.0625305l5.140625 0l0 41.984406l-4.796875 0zm-16.296875 -15.171875q0 5.828125 2.46875 8.734375q2.46875 2.890625 5.8125 2.890625q3.375 0 5.734375 -2.765625q2.375 -2.765625 2.375 -8.4375q0 -6.25 -2.40625 -9.171875q-2.40625 -2.921875 -5.9375 -2.921875q-3.421875 0 -5.734375 2.8125q-2.3125 2.8125 -2.3125 8.859375zm43.574646 -0.03125q0 -8.453125 4.6875 -12.515625q3.921875 -3.390625 9.5625 -3.390625q6.28125 0 10.25 4.109375q3.984375 4.109375 3.984375 11.359375q0 5.875 -1.765625 9.25q-1.75 3.359375 -5.125 5.21875q-3.359375 1.859375 -7.34375 1.859375q-6.375 0 -10.3125 -4.09375q-3.9375 -4.09375 -3.9375 -11.796875zm5.296875 0q0 5.84375 2.546875 8.75q2.546875 2.90625 6.40625 2.90625q3.84375 0 6.390625 -2.921875q2.546875 -2.921875 2.546875 -8.90625q0 -5.640625 -2.5625 -8.546875q-2.5625 -2.921875 -6.375 -2.921875q-3.859375 0 -6.40625 2.90625q-2.546875 2.890625 -2.546875 8.734375zm29.184265 15.203125l0 -30.421875l4.640625 0l0 4.609375q1.765625 -3.234375 3.265625 -4.265625q1.515625 -1.03125 3.3125 -1.03125q2.609375 0 5.296875 1.671875l-1.765625 4.78125q-1.890625 -1.125 -3.78125 -1.125q-1.6875 0 -3.046875 1.015625q-1.34375 1.015625 -1.90625 2.828125q-0.859375 2.75 -0.859375 6.015625l0 15.921875l-5.15625 0z" fill-rule="nonzero"></path><path fill="#000000" d="m630.109 600.9052l5.5625 1.40625q-1.75 6.84375 -6.296875 10.4375q-4.53125 3.59375 -11.09375 3.59375q-6.796875 0 -11.046875 -2.765625q-4.25 -2.765625 -6.46875 -8.0q-2.21875 -5.25 -2.21875 -11.265625q0 -6.5625 2.5 -11.4375q2.515625 -4.890625 7.140625 -7.421875q4.625 -2.53125 10.171875 -2.53125q6.3125 0 10.609375 3.21875q4.296875 3.203125 5.984375 9.015625l-5.46875 1.28125q-1.46875 -4.578125 -4.25 -6.671875q-2.765625 -2.09375 -6.984375 -2.09375q-4.84375 0 -8.09375 2.328125q-3.25 2.3125 -4.5625 6.234375q-1.3125 3.90625 -1.3125 8.046875q0 5.359375 1.546875 9.359375q1.5625 4.0 4.859375 5.984375q3.296875 1.96875 7.140625 1.96875q4.65625 0 7.890625 -2.6875q3.25 -2.703125 4.390625 -8.0zm12.406555 14.71875l0 -41.984375l15.828125 0q4.1875 0 6.390625 0.390625q3.09375 0.515625 5.1875 1.96875q2.09375 1.453125 3.359375 4.0625q1.28125 2.59375 1.28125 5.71875q0 5.359375 -3.421875 9.078125q-3.40625 3.703125 -12.3125 3.703125l-10.765625 0l0 17.0625l-5.546875 0zm5.546875 -22.03125l10.859375 0q5.390625 0 7.640625 -2.0q2.265625 -2.0 2.265625 -5.640625q0 -2.640625 -1.328125 -4.515625q-1.328125 -1.875 -3.515625 -2.46875q-1.390625 -0.375 -5.171875 -0.375l-10.75 0l0 15.0zm33.65448 22.03125l0 -41.984375l18.625 0q5.609375 0 8.53125 1.140625q2.921875 1.125 4.65625 3.984375q1.75 2.859375 1.75 6.328125q0 4.46875 -2.890625 7.53125q-2.890625 3.0625 -8.9375 3.890625q2.21875 1.0625 3.359375 2.09375q2.4375 2.234375 4.609375 5.59375l7.296875 11.421875l-6.984375 0l-5.546875 -8.734375q-2.4375 -3.78125 -4.015625 -5.78125q-1.578125 -2.015625 -2.828125 -2.8125q-1.234375 -0.796875 -2.53125 -1.109375q-0.9375 -0.203125 -3.09375 -0.203125l-6.4375 0l0 18.640625l-5.5625 0zm5.5625 -23.453125l11.9375 0q3.8125 0 5.953125 -0.78125q2.15625 -0.796875 3.265625 -2.53125q1.125 -1.734375 1.125 -3.765625q0 -2.984375 -2.171875 -4.890625q-2.15625 -1.921875 -6.828125 -1.921875l-13.28125 0l0 13.890625zm63.6875 23.453125l0 -37.03125l-13.828125 0l0 -4.953125l33.28125 0l0 4.953125l-13.890625 0l0 37.03125l-5.5625 0zm45.313965 -9.796875l5.328125 0.65625q-1.265625 4.671875 -4.671875 7.25q-3.40625 2.578125 -8.703125 2.578125q-6.671875 0 -10.59375 -4.109375q-3.90625 -4.109375 -3.90625 -11.53125q0 -7.671875 3.953125 -11.90625q3.953125 -4.25 10.265625 -4.25q6.09375 0 9.953125 4.15625q3.875 4.15625 3.875 11.6875q0 0.453125 -0.03125 1.375l-22.6875 0q0.296875 5.015625 2.84375 7.6875q2.546875 2.65625 6.359375 2.65625q2.828125 0 4.828125 -1.484375q2.015625 -1.5 3.1875 -4.765625zm-16.921875 -8.328125l16.984375 0q-0.34375 -3.84375 -1.953125 -5.765625q-2.46875 -2.96875 -6.390625 -2.96875q-3.546875 0 -5.96875 2.375q-2.421875 2.375 -2.671875 6.359375zm26.653076 9.046875l5.109375 -0.796875q0.421875 3.0625 2.375 4.703125q1.96875 1.625 5.5 1.625q3.546875 0 5.265625 -1.4375q1.71875 -1.453125 1.71875 -3.40625q0 -1.75 -1.515625 -2.75q-1.0625 -0.6875 -5.265625 -1.75q-5.671875 -1.4375 -7.875 -2.46875q-2.1875 -1.046875 -3.328125 -2.890625q-1.125 -1.859375 -1.125 -4.09375q0 -2.03125 0.9375 -3.765625q0.9375 -1.734375 2.53125 -2.875q1.203125 -0.890625 3.28125 -1.5q2.078125 -0.625 4.453125 -0.625q3.578125 0 6.28125 1.03125q2.71875 1.03125 4.0 2.796875q1.296875 1.765625 1.78125 4.71875l-5.046875 0.6875q-0.34375 -2.359375 -2.0 -3.671875q-1.640625 -1.3125 -4.640625 -1.3125q-3.546875 0 -5.078125 1.171875q-1.515625 1.171875 -1.515625 2.75q0 1.0 0.640625 1.796875q0.625 0.828125 1.96875 1.375q0.78125 0.296875 4.5625 1.328125q5.46875 1.453125 7.625 2.390625q2.171875 0.921875 3.390625 2.703125q1.234375 1.765625 1.234375 4.40625q0 2.578125 -1.5 4.859375q-1.5 2.28125 -4.34375 3.53125q-2.828125 1.234375 -6.40625 1.234375q-5.9375 0 -9.046875 -2.453125q-3.109375 -2.46875 -3.96875 -7.3125zm42.65625 4.46875l0.734375 4.546875q-2.171875 0.46875 -3.890625 0.46875q-2.796875 0 -4.34375 -0.890625q-1.546875 -0.890625 -2.1875 -2.328125q-0.625 -1.453125 -0.625 -6.09375l0 -17.5l-3.78125 0l0 -4.015625l3.78125 0l0 -7.53125l5.125 -3.09375l0 10.625l5.1875 0l0 4.015625l-5.1875 0l0 17.78125q0 2.203125 0.265625 2.84375q0.28125 0.625 0.890625 1.0q0.625 0.375 1.765625 0.375q0.859375 0 2.265625 -0.203125zm2.9684448 -4.46875l5.109375 -0.796875q0.421875 3.0625 2.375 4.703125q1.96875 1.625 5.5 1.625q3.546875 0 5.265625 -1.4375q1.71875 -1.453125 1.71875 -3.40625q0 -1.75 -1.515625 -2.75q-1.0625 -0.6875 -5.265625 -1.75q-5.671875 -1.4375 -7.875 -2.46875q-2.1875 -1.046875 -3.328125 -2.890625q-1.125 -1.859375 -1.125 -4.09375q0 -2.03125 0.9375 -3.765625q0.9375 -1.734375 2.53125 -2.875q1.203125 -0.890625 3.28125 -1.5q2.078125 -0.625 4.453125 -0.625q3.578125 0 6.28125 1.03125q2.71875 1.03125 4.0 2.796875q1.296875 1.765625 1.78125 4.71875l-5.046875 0.6875q-0.34375 -2.359375 -2.0 -3.671875q-1.640625 -1.3125 -4.640625 -1.3125q-3.546875 0 -5.078125 1.171875q-1.515625 1.171875 -1.515625 2.75q0 1.0 0.640625 1.796875q0.625 0.828125 1.96875 1.375q0.78125 0.296875 4.5625 1.328125q5.46875 1.453125 7.625 2.390625q2.171875 0.921875 3.390625 2.703125q1.234375 1.765625 1.234375 4.40625q0 2.578125 -1.5 4.859375q-1.5 2.28125 -4.34375 3.53125q-2.828125 1.234375 -6.40625 1.234375q-5.9375 0 -9.046875 -2.453125q-3.109375 -2.46875 -3.96875 -7.3125z" fill-rule="nonzero"></path><path fill="#000000" fill-opacity="0.0" d="m233.54814 301.26462l0 100.37796" fill-rule="evenodd"></path><path stroke="#000000" stroke-width="8.0" stroke-linejoin="round" stroke-linecap="butt" d="m233.54814 301.26462l0 52.37793" fill-rule="evenodd"></path><path fill="#000000" stroke="#000000" stroke-width="8.0" stroke-linecap="butt" d="m220.33429 353.64255l13.213852 36.30478l13.213867 -36.30478z" fill-rule="evenodd"></path><path fill="#000000" fill-opacity="0.0" d="m437.86536 551.77014l106.42517 -1.763794" fill-rule="evenodd"></path><path stroke="#000000" stroke-width="8.0" stroke-linejoin="round" stroke-linecap="butt" d="m437.86536 551.77014l58.431793 -0.9683838" fill-rule="evenodd"></path><path fill="#000000" stroke="#000000" stroke-width="8.0" stroke-linecap="butt" d="m496.5161 564.0138l36.08081 -13.81366l-36.518738 -12.610413z" fill-rule="evenodd"></path><path fill="#cfe2f3" d="m550.53265 301.54593c9.649719 0 17.472412 -7.8226624 17.472412 -17.472443l-17.472412 0c4.824829 0 8.736206 -3.9113464 8.736206 -8.736206c0 -4.82489 -3.911377 -8.736237 -8.736206 -8.736237l17.472412 0l0 -227.14172l0 0c0 -9.649761 7.822693 -17.472439 17.472473 -17.472439l338.7716 0c9.64978 0 17.472473 7.8226776 17.472473 17.472439c0 9.649765 -7.822693 17.472443 -17.472473 17.472443l-17.472412 0l0 227.14172c0 9.64978 -7.822693 17.472443 -17.472473 17.472443zm52.417297 -262.0866l0 0c0 9.649765 -7.822693 17.472443 -17.472412 17.472443l0 0c-4.82489 0 -8.736267 -3.9113388 -8.736267 -8.736221c0 -4.8248825 3.911377 -8.736221 8.736267 -8.736221z" fill-rule="evenodd"></path><path fill="#a5b4c2" d="m602.94995 39.459316l0 0c0 9.649765 -7.822693 17.472443 -17.472412 17.472443l0 0c-4.82489 0 -8.736267 -3.9113388 -8.736267 -8.736221c0 -4.8248825 3.911377 -8.736221 8.736267 -8.736221zm-34.944885 244.61417c0 9.64978 -7.822693 17.472443 -17.472412 17.472443c-9.64978 0 -17.472473 -7.8226624 -17.472473 -17.472443c0 -9.64975 7.822693 -17.472443 17.472473 -17.472443l0 0c4.824829 0 8.736206 3.9113464 8.736206 8.736237c0 4.8248596 -3.911377 8.736206 -8.736206 8.736206z" fill-rule="evenodd"></path><path fill="#000000" fill-opacity="0.0" d="m568.00507 266.60104l0 -227.14172l0 0c0 -9.649761 7.822693 -17.472439 17.472473 -17.472439l338.7716 0c9.64978 0 17.472473 7.8226776 17.472473 17.472439c0 9.649765 -7.822693 17.472443 -17.472473 17.472443l-17.472412 0l0 227.14172c0 9.64978 -7.822693 17.472443 -17.472473 17.472443l-338.7716 0c-9.64978 0 -17.472473 -7.8226624 -17.472473 -17.472443c0 -9.64975 7.822693 -17.472443 17.472473 -17.472443zm17.472473 -244.61417l0 0c9.649719 0 17.472412 7.8226776 17.472412 17.472439c0 9.649765 -7.822693 17.472443 -17.472412 17.472443l0 0c-4.82489 0 -8.736267 -3.9113388 -8.736267 -8.736221c0 -4.8248825 3.911377 -8.736221 8.736267 -8.736221l17.472412 0m303.82678 17.472443l-321.2992 0m-34.944885 209.66928l0 0c4.824829 0 8.736206 3.9113464 8.736206 8.736237c0 4.8248596 -3.911377 8.736206 -8.736206 8.736206l17.472412 0m-17.472412 17.472443c9.649719 0 17.472412 -7.8226624 17.472412 -17.472443l0 -17.472443" fill-rule="evenodd"></path><path stroke="#000000" stroke-width="1.0" stroke-linejoin="round" stroke-linecap="butt" d="m568.00507 266.60104l0 -227.14172l0 0c0 -9.649761 7.822693 -17.472439 17.472473 -17.472439l338.7716 0c9.64978 0 17.472473 7.8226776 17.472473 17.472439c0 9.649765 -7.822693 17.472443 -17.472473 17.472443l-17.472412 0l0 227.14172c0 9.64978 -7.822693 17.472443 -17.472473 17.472443l-338.7716 0c-9.64978 0 -17.472473 -7.8226624 -17.472473 -17.472443c0 -9.64975 7.822693 -17.472443 17.472473 -17.472443zm17.472473 -244.61417l0 0c9.649719 0 17.472412 7.8226776 17.472412 17.472439c0 9.649765 -7.822693 17.472443 -17.472412 17.472443l0 0c-4.82489 0 -8.736267 -3.9113388 -8.736267 -8.736221c0 -4.8248825 3.911377 -8.736221 8.736267 -8.736221l17.472412 0m303.82678 17.472443l-321.2992 0m-34.944885 209.66928l0 0c4.824829 0 8.736206 3.9113464 8.736206 8.736237c0 4.8248596 -3.911377 8.736206 -8.736206 8.736206l17.472412 0m-17.472412 17.472443c9.649719 0 17.472412 -7.8226624 17.472412 -17.472443l0 -17.472443" fill-rule="evenodd"></path><path fill="#000000" d="m626.84406 154.94263l0 -45.812508l33.125 0l0 5.40625l-27.0625 0l0 14.031258l25.34375 0l0 5.375l-25.34375 0l0 15.59375l28.125 0l0 5.40625l-34.1875 0zm41.84375 0l0 -33.187508l5.03125 0l0 4.65625q1.5625 -2.4375 4.15625 -3.921875q2.59375 -1.484375 5.90625 -1.484375q3.6875 0 6.046875 1.53125q2.359375 1.53125 3.328125 4.28125q3.9375 -5.8125 10.25 -5.8125q4.9375 0 7.59375 2.734375q2.65625 2.734375 2.65625 8.421883l0 22.78125l-5.59375 0l0 -20.90625q0 -3.375 -0.546875 -4.859375q-0.546875 -1.4843826 -1.984375 -2.3906326q-1.4375 -0.90625 -3.375 -0.90625q-3.5 0 -5.8125 2.3281326q-2.3125 2.328125 -2.3125 7.453125l0 19.28125l-5.625 0l0 -21.5625q0 -3.75 -1.375 -5.6250076q-1.375 -1.875 -4.5 -1.875q-2.375 0 -4.390625 1.25q-2.015625 1.2500076 -2.921875 3.6562576q-0.90625 2.40625 -0.90625 6.9375l0 17.21875l-5.625 0zm74.96875 -4.09375q-3.125 2.65625 -6.015625 3.75q-2.890625 1.09375 -6.203125 1.09375q-5.46875 0 -8.40625 -2.671875q-2.9375 -2.671875 -2.9375 -6.828125q0 -2.4375 1.109375 -4.453125q1.109375 -2.015625 2.90625 -3.234375q1.796875 -1.21875 4.046875 -1.84375q1.65625 -0.4375 5.0 -0.84375q6.8125 -0.8125 10.03125 -1.9375q0.03125 -1.15625 0.03125 -1.46875q0 -3.4375 -1.59375 -4.8437576q-2.15625 -1.90625 -6.40625 -1.90625q-3.96875 0 -5.859375 1.390625q-1.890625 1.3906326 -2.796875 4.9218826l-5.5 -0.75q0.75 -3.5312576 2.46875 -5.7031326q1.71875 -2.171875 4.96875 -3.34375q3.25 -1.171875 7.53125 -1.171875q4.25 0 6.90625 1.0q2.65625 1.0 3.90625 2.515625q1.25 1.515625 1.75 3.8281326q0.28125 1.4375 0.28125 5.1875l0 7.5q0 7.84375 0.359375 9.921875q0.359375 2.078125 1.421875 3.984375l-5.875 0q-0.875 -1.75 -1.125 -4.09375zm-0.46875 -12.5625q-3.0625 1.25 -9.1875 2.125q-3.46875 0.5 -4.90625 1.125q-1.4375 0.625 -2.21875 1.828125q-0.78125 1.203125 -0.78125 2.671875q0 2.25 1.703125 3.75q1.703125 1.5 4.984375 1.5q3.25 0 5.78125 -1.421875q2.53125 -1.421875 3.71875 -3.890625q0.90625 -1.90625 0.90625 -5.625l0 -2.0625zm14.4375 -22.687508l0 -6.46875l5.625 0l0 6.46875l-5.625 0zm0 39.343758l0 -33.187508l5.625 0l0 33.187508l-5.625 0zm14.0625 0l0 -45.812508l5.625 0l0 45.812508l-5.625 0zm37.0625 -10.6875l5.8125 0.71875q-1.375 5.09375 -5.09375 7.90625q-3.71875 2.8125 -9.5 2.8125q-7.28125 0 -11.546875 -4.484375q-4.265625 -4.484375 -4.265625 -12.578125q0 -8.375 4.3125 -13.000008q4.3125 -4.625 11.1875 -4.625q6.65625 0 10.875 4.53125q4.21875 4.5312576 4.21875 12.750008q0 0.5 -0.03125 1.5l-24.75 0q0.3125 5.46875 3.09375 8.375q2.78125 2.90625 6.9375 2.90625q3.09375 0 5.28125 -1.625q2.1875 -1.625 3.46875 -5.1875zm-18.46875 -9.09375l18.53125 0q-0.375 -4.1875 -2.125 -6.28125q-2.6875 -3.2500076 -6.96875 -3.2500076q-3.875 0 -6.515625 2.5937576q-2.640625 2.59375 -2.921875 6.9375zm52.875 19.78125l0 -4.1875q-3.15625 4.9375 -9.28125 4.9375q-3.96875 0 -7.296875 -2.1875q-3.328125 -2.1875 -5.15625 -6.109375q-1.828125 -3.921875 -1.828125 -9.015625q0 -4.96875 1.65625 -9.015625q1.65625 -4.0468826 4.96875 -6.2031326q3.3125 -2.15625 7.40625 -2.15625q3.0 0 5.34375 1.265625q2.34375 1.265625 3.8125 3.296875l0 -16.4375l5.59375 0l0 45.812508l-5.21875 0zm-17.78125 -16.5625q0 6.375 2.6875 9.53125q2.6875 3.15625 6.34375 3.15625q3.6875 0 6.265625 -3.015625q2.578125 -3.015625 2.578125 -9.203125q0 -6.8125 -2.625 -10.0q-2.625 -3.1875076 -6.46875 -3.1875076q-3.75 0 -6.265625 3.0625076q-2.515625 3.0625 -2.515625 9.65625z" fill-rule="nonzero"></path><path fill="#000000" d="m630.96906 215.88013l6.0625 1.53125q-1.90625 7.46875 -6.859375 11.390625q-4.953125 3.921875 -12.109375 3.921875q-7.40625 0 -12.046875 -3.015625q-4.640625 -3.015625 -7.0625 -8.734375q-2.421875 -5.71875 -2.421875 -12.28125q0 -7.15625 2.734375 -12.484375q2.734375 -5.328125 7.78125 -8.09375q5.046875 -2.765625 11.109375 -2.765625q6.875 0 11.5625 3.5q4.6875 3.5 6.53125 9.84375l-5.96875 1.40625q-1.59375 -5.0 -4.625 -7.28125q-3.03125 -2.28125 -7.625 -2.28125q-5.28125 0 -8.828125 2.53125q-3.546875 2.53125 -4.984375 6.796875q-1.4375 4.265625 -1.4375 8.796875q0 5.84375 1.703125 10.203125q1.703125 4.359375 5.296875 6.515625q3.59375 2.15625 7.78125 2.15625q5.09375 0 8.625 -2.9375q3.53125 -2.9375 4.78125 -8.71875zm35.53125 5.375l5.8125 0.71875q-1.375 5.09375 -5.09375 7.90625q-3.71875 2.8125 -9.5 2.8125q-7.28125 0 -11.546875 -4.484375q-4.265625 -4.484375 -4.265625 -12.578125q0 -8.375 4.3125 -13.0q4.3125 -4.625 11.1875 -4.625q6.65625 0 10.875 4.53125q4.21875 4.53125 4.21875 12.75q0 0.5 -0.03125 1.5l-24.75 0q0.3125 5.46875 3.09375 8.375q2.78125 2.90625 6.9375 2.90625q3.09375 0 5.28125 -1.625q2.1875 -1.625 3.46875 -5.1875zm-18.46875 -9.09375l18.53125 0q-0.375 -4.1875 -2.125 -6.28125q-2.6875 -3.25 -6.96875 -3.25q-3.875 0 -6.515625 2.59375q-2.640625 2.59375 -2.921875 6.9375zm31.28125 19.78125l0 -33.1875l5.0625 0l0 5.03125q1.9375 -3.53125 3.578125 -4.65625q1.640625 -1.125 3.609375 -1.125q2.84375 0 5.78125 1.8125l-1.9375 5.21875q-2.0625 -1.21875 -4.125 -1.21875q-1.84375 0 -3.3125 1.109375q-1.46875 1.109375 -2.09375 3.078125q-0.9375 3.0 -0.9375 6.5625l0 17.375l-5.625 0zm33.65625 -5.03125l0.8125 4.96875q-2.375 0.5 -4.25 0.5q-3.0625 0 -4.75 -0.96875q-1.6875 -0.96875 -2.375 -2.546875q-0.6875 -1.578125 -0.6875 -6.640625l0 -19.09375l-4.125 0l0 -4.375l4.125 0l0 -8.21875l5.59375 -3.375l0 11.59375l5.65625 0l0 4.375l-5.65625 0l0 19.40625q0 2.40625 0.296875 3.09375q0.296875 0.6875 0.96875 1.09375q0.671875 0.40625 1.921875 0.40625q0.9375 0 2.46875 -0.21875zm5.53125 -34.3125l0 -6.46875l5.625 0l0 6.46875l-5.625 0zm0 39.34375l0 -33.1875l5.625 0l0 33.1875l-5.625 0zm15.53125 0l0 -28.8125l-4.96875 0l0 -4.375l4.96875 0l0 -3.53125q0 -3.34375 0.59375 -4.96875q0.8125 -2.1875 2.859375 -3.546875q2.046875 -1.359375 5.734375 -1.359375q2.375 0 5.25 0.5625l-0.84375 4.90625q-1.75 -0.3125 -3.3125 -0.3125q-2.5625 0 -3.625 1.09375q-1.0625 1.09375 -1.0625 4.09375l0 3.0625l6.46875 0l0 4.375l-6.46875 0l0 28.8125l-5.59375 0zm16.46875 -39.34375l0 -6.46875l5.625 0l0 6.46875l-5.625 0zm0 39.34375l0 -33.1875l5.625 0l0 33.1875l-5.625 0zm35.84375 -12.15625l5.53125 0.71875q-0.90625 5.71875 -4.640625 8.953125q-3.734375 3.234375 -9.171875 3.234375q-6.8125 0 -10.953125 -4.453125q-4.140625 -4.453125 -4.140625 -12.765625q0 -5.375 1.78125 -9.40625q1.78125 -4.03125 5.421875 -6.046875q3.640625 -2.015625 7.921875 -2.015625q5.40625 0 8.84375 2.734375q3.4375 2.734375 4.40625 7.765625l-5.46875 0.84375q-0.78125 -3.34375 -2.765625 -5.03125q-1.984375 -1.6875 -4.796875 -1.6875q-4.25 0 -6.90625 3.046875q-2.65625 3.046875 -2.65625 9.640625q0 6.6875 2.5625 9.71875q2.5625 3.03125 6.6875 3.03125q3.3125 0 5.53125 -2.03125q2.21875 -2.03125 2.8125 -6.25zm32.0 8.0625q-3.125 2.65625 -6.015625 3.75q-2.890625 1.09375 -6.203125 1.09375q-5.46875 0 -8.40625 -2.671875q-2.9375 -2.671875 -2.9375 -6.828125q0 -2.4375 1.109375 -4.453125q1.109375 -2.015625 2.90625 -3.234375q1.796875 -1.21875 4.046875 -1.84375q1.65625 -0.4375 5.0 -0.84375q6.8125 -0.8125 10.03125 -1.9375q0.03125 -1.15625 0.03125 -1.46875q0 -3.4375 -1.59375 -4.84375q-2.15625 -1.90625 -6.40625 -1.90625q-3.96875 0 -5.859375 1.390625q-1.890625 1.390625 -2.796875 4.921875l-5.5 -0.75q0.75 -3.53125 2.46875 -5.703125q1.71875 -2.171875 4.96875 -3.34375q3.25 -1.171875 7.53125 -1.171875q4.25 0 6.90625 1.0q2.65625 1.0 3.90625 2.515625q1.25 1.515625 1.75 3.828125q0.28125 1.4375 0.28125 5.1875l0 7.5q0 7.84375 0.359375 9.921875q0.359375 2.078125 1.421875 3.984375l-5.875 0q-0.875 -1.75 -1.125 -4.09375zm-0.46875 -12.5625q-3.0625 1.25 -9.1875 2.125q-3.46875 0.5 -4.90625 1.125q-1.4375 0.625 -2.21875 1.828125q-0.78125 1.203125 -0.78125 2.671875q0 2.25 1.703125 3.75q1.703125 1.5 4.984375 1.5q3.25 0 5.78125 -1.421875q2.53125 -1.421875 3.71875 -3.890625q0.90625 -1.90625 0.90625 -5.625l0 -2.0625zm26.6875 11.625l0.8125 4.96875q-2.375 0.5 -4.25 0.5q-3.0625 0 -4.75 -0.96875q-1.6875 -0.96875 -2.375 -2.546875q-0.6875 -1.578125 -0.6875 -6.640625l0 -19.09375l-4.125 0l0 -4.375l4.125 0l0 -8.21875l5.59375 -3.375l0 11.59375l5.65625 0l0 4.375l-5.65625 0l0 19.40625q0 2.40625 0.296875 3.09375q0.296875 0.6875 0.96875 1.09375q0.671875 0.40625 1.921875 0.40625q0.9375 0 2.46875 -0.21875zm28.21875 -5.65625l5.8125 0.71875q-1.375 5.09375 -5.09375 7.90625q-3.71875 2.8125 -9.5 2.8125q-7.28125 0 -11.546875 -4.484375q-4.265625 -4.484375 -4.265625 -12.578125q0 -8.375 4.3125 -13.0q4.3125 -4.625 11.1875 -4.625q6.65625 0 10.875 4.53125q4.21875 4.53125 4.21875 12.75q0 0.5 -0.03125 1.5l-24.75 0q0.3125 5.46875 3.09375 8.375q2.78125 2.90625 6.9375 2.90625q3.09375 0 5.28125 -1.625q2.1875 -1.625 3.46875 -5.1875zm-18.46875 -9.09375l18.53125 0q-0.375 -4.1875 -2.125 -6.28125q-2.6875 -3.25 -6.96875 -3.25q-3.875 0 -6.515625 2.59375q-2.640625 2.59375 -2.921875 6.9375z" fill-rule="nonzero"></path><path fill="#000000" fill-opacity="0.0" d="m737.3963 401.62726l0 -100.09448" fill-rule="evenodd"></path><path stroke="#000000" stroke-width="8.0" stroke-linejoin="round" stroke-linecap="butt" d="m737.3963 401.62726l0 -52.094482" fill-rule="evenodd"></path><path fill="#000000" stroke="#000000" stroke-width="8.0" stroke-linecap="butt" d="m750.61017 349.53278l-13.213867 -36.30478l-13.213806 36.30478z" fill-rule="evenodd"></path></g></svg>

